<svg width="24" height="25" viewBox="0 0 24 25" fill="none" xmlns="http://www.w3.org/2000/svg">
<path d="M21 12.1255C21 7.64715 21 5.40798 19.6088 4.01673C18.2175 2.62549 15.9783 2.62549 11.5 2.62549C7.02166 2.62549 4.78249 2.62549 3.39124 4.01673C2 5.40798 2 7.64715 2 12.1255C2 16.6038 2 18.843 3.39124 20.2343C4.72972 21.5727 6.85301 21.6235 11 21.6254" stroke="#E7E7E7" stroke-width="1.5" stroke-linecap="round"/>
<path d="M2 7.62549H21" stroke="#E7E7E7" stroke-width="1.5" stroke-linejoin="round"/>
<path d="M10 16.6255H11.5M6 16.6255H7M10 12.6255H16M6 12.6255H7" stroke="#E7E7E7" stroke-width="1.5" stroke-linecap="round" stroke-linejoin="round"/>
<path d="M21.2633 15.4972C20.3622 14.4906 19.8215 14.5505 19.2208 14.7303C18.8003 14.7902 17.3585 16.4677 16.7578 17.002C15.7714 17.9733 14.7806 18.9734 14.7153 19.1039C14.5285 19.4065 14.3548 19.9427 14.2707 20.5418C14.1145 21.4405 13.8041 22.407 14.1746 22.5388C14.3548 22.7785 15.2559 22.459 16.157 22.3272C16.7578 22.2193 17.1783 22.0995 17.4787 21.9198C17.8992 21.6681 18.6801 20.7814 20.0258 19.4634C20.8697 18.5776 21.6838 17.9655 21.9241 17.3664C22.1644 16.4677 21.804 15.9884 21.2633 15.4972Z" stroke="#E7E7E7" stroke-width="1.5"/>
</svg>
