<svg width="24" height="25" viewBox="0 0 24 25" fill="none" xmlns="http://www.w3.org/2000/svg">
<path d="M17 2.62549V4.62549M12 2.62549V4.62549M7 2.62549V4.62549" stroke="#E7E7E7" stroke-width="1.5" stroke-linecap="round" stroke-linejoin="round"/>
<path d="M3.5 10.6255C3.5 7.32566 3.5 5.67574 4.52513 4.65062C5.55025 3.62549 7.20017 3.62549 10.5 3.62549H13.5C16.7998 3.62549 18.4497 3.62549 19.4749 4.65062C20.5 5.67574 20.5 7.32566 20.5 10.6255V15.6255C20.5 18.9253 20.5 20.5752 19.4749 21.6004C18.4497 22.6255 16.7998 22.6255 13.5 22.6255H10.5C7.20017 22.6255 5.55025 22.6255 4.52513 21.6004C3.5 20.5752 3.5 18.9253 3.5 15.6255V10.6255Z" stroke="#E7E7E7" stroke-width="1.5" stroke-linecap="round" stroke-linejoin="round"/>
<path d="M13.5 16.6255H17" stroke="#E7E7E7" stroke-width="1.5" stroke-linecap="round"/>
<path d="M13.5 9.62549H17" stroke="#E7E7E7" stroke-width="1.5" stroke-linecap="round"/>
<path d="M7 10.6255C7 10.6255 7.5 10.6255 8 11.6255C8 11.6255 9.58824 9.12549 11 8.62549" stroke="#E1E8F8" stroke-width="1.5" stroke-linecap="round" stroke-linejoin="round"/>
<path d="M7 17.6255C7 17.6255 7.5 17.6255 8 18.6255C8 18.6255 9.58824 16.1255 11 15.6255" stroke="#E1E8F8" stroke-width="1.5" stroke-linecap="round" stroke-linejoin="round"/>
</svg>
