<svg width="40" height="40" viewBox="0 0 40 40" fill="none" xmlns="http://www.w3.org/2000/svg">
<rect width="40" height="40" rx="20" fill="#F6F6F6"/>
<path d="M19.9998 33.3332C27.3636 33.3332 33.3332 27.3636 33.3332 19.9998C33.3332 12.636 27.3636 6.6665 19.9998 6.6665C12.636 6.6665 6.6665 12.636 6.6665 19.9998C6.6665 27.3636 12.636 33.3332 19.9998 33.3332Z" stroke="#6D6D6D" stroke-width="1.5"/>
<path d="M14 26.6668C17.1089 23.4106 22.8576 23.2572 26 26.6668M23.3268 16.6668C23.3268 18.5078 21.8323 20.0002 19.9887 20.0002C18.1452 20.0002 16.6506 18.5078 16.6506 16.6668C16.6506 14.8259 18.1452 13.3335 19.9887 13.3335C21.8323 13.3335 23.3268 14.8259 23.3268 16.6668Z" stroke="#6D6D6D" stroke-width="1.5" stroke-linecap="round"/>
</svg>
