<svg width="24" height="25" viewBox="0 0 24 25" fill="none" xmlns="http://www.w3.org/2000/svg">
<path d="M14 2.62549H10C6.72077 2.62549 5.08116 2.62549 3.91891 3.43931C3.48891 3.74039 3.1149 4.1144 2.81382 4.5444C2 5.70665 2 7.34626 2 10.6255C2 13.9047 2 15.5443 2.81382 16.7066C3.1149 17.1366 3.48891 17.5106 3.91891 17.8117C5.08116 18.6255 6.72077 18.6255 10 18.6255H14C17.2792 18.6255 18.9188 18.6255 20.0811 17.8117C20.5111 17.5106 20.8851 17.1366 21.1862 16.7066C22 15.5443 22 13.9047 22 10.6255C22 7.34626 22 5.70665 21.1862 4.5444C20.8851 4.1144 20.5111 3.74039 20.0811 3.43931C18.9188 2.62549 17.2792 2.62549 14 2.62549Z" stroke="#E7E7E7" stroke-width="1.5" stroke-linecap="round"/>
<path d="M11 15.6255H13" stroke="#E7E7E7" stroke-width="1.5" stroke-linecap="round" stroke-linejoin="round"/>
<path d="M14.5 22.6255L14.1845 22.2066C13.4733 21.2624 13.2969 19.8199 13.7468 18.6255M9.5 22.6255L9.8155 22.2066C10.5267 21.2624 10.7031 19.8199 10.2532 18.6255" stroke="#E7E7E7" stroke-width="1.5" stroke-linecap="round"/>
<path d="M7 22.6255H17" stroke="#E7E7E7" stroke-width="1.5" stroke-linecap="round"/>
</svg>
