<svg width="100" height="100" viewBox="0 0 100 100" fill="none" xmlns="http://www.w3.org/2000/svg">
<rect width="100" height="100" rx="50" fill="white"/>
<path d="M50.0003 88.3332C71.1712 88.3332 88.3337 71.1708 88.3337 49.9998C88.3337 28.8289 71.1712 11.6665 50.0003 11.6665C28.8294 11.6665 11.667 28.8289 11.667 49.9998C11.667 71.1708 28.8294 88.3332 50.0003 88.3332Z" stroke="#6D6D6D" stroke-width="1.5"/>
<path d="M32.75 69.1668C41.6882 59.8051 58.2156 59.3642 67.25 69.1668M59.5645 40.4168C59.5645 45.7095 55.2678 50.0002 49.9674 50.0002C44.6674 50.0002 40.3706 45.7095 40.3706 40.4168C40.3706 35.1241 44.6674 30.8335 49.9674 30.8335C55.2678 30.8335 59.5645 35.1241 59.5645 40.4168Z" stroke="#6D6D6D" stroke-width="1.5" stroke-linecap="round"/>
</svg>
