<svg width="16" height="16" viewBox="0 0 16 16" fill="none" xmlns="http://www.w3.org/2000/svg">
<g id="graduate-male">
<path id="Vector" d="M12.6673 6.66667C11.3307 6.24543 9.72612 6 8.00065 6C6.27518 6 4.67064 6.24543 3.33398 6.66667V9C4.67064 8.5788 6.27518 8.33333 8.00065 8.33333C9.72612 8.33333 11.3307 8.5788 12.6673 9V6.66667Z" stroke="#5D7DD4" stroke-linejoin="round"/>
<path id="Vector_2" d="M12.6673 8.66669V10.0155C12.6673 11.4362 11.9793 12.7527 10.8548 13.4836L9.92145 14.0903C8.73918 14.8588 7.26212 14.8588 6.07986 14.0903L5.14654 13.4836C4.02204 12.7527 3.33398 11.4362 3.33398 10.0155V8.66669" stroke="#5D7DD4" stroke-linecap="round"/>
<path id="Vector_3" d="M12.6673 6.66665L13.4178 6.27138C14.2599 5.71915 14.6809 5.44303 14.667 5.04852C14.6531 4.65401 14.214 4.41401 13.3357 3.93399L10.1842 2.21169C9.11272 1.62611 8.57698 1.33331 8.00065 1.33331C7.42432 1.33331 6.88858 1.62611 5.8171 2.21169L2.66567 3.93399C1.78734 4.41401 1.34818 4.65401 1.33432 5.04852C1.32045 5.44303 1.74148 5.71915 2.58354 6.27138L3.33398 6.66665" stroke="#5D7DD4" stroke-linecap="round"/>
</g>
</svg>
