<svg width="16" height="16" viewBox="0 0 16 16" fill="none" xmlns="http://www.w3.org/2000/svg">
<g id="graduate-female">
<path id="Vector" d="M12.6673 6.66667C11.3307 6.24543 9.72612 6 8.00065 6C6.27518 6 4.67064 6.24543 3.33398 6.66667V9C4.67064 8.5788 6.27518 8.33333 8.00065 8.33333C9.72612 8.33333 11.3307 8.5788 12.6673 9V6.66667Z" stroke="#FF9B9B" stroke-linejoin="round"/>
<path id="Vector_2" d="M12.6667 7.33331V9.50738C12.7863 10.293 13.2308 12.0471 14.6667 13.394C14.1881 14.1796 12.5846 15.4142 10 14.0674" stroke="#FF9B9B" stroke-linejoin="round"/>
<path id="Vector_3" d="M3.33398 7.33331V9.50738C3.21432 10.293 2.76988 12.0471 1.33398 13.394C1.81262 14.1796 3.41604 15.4142 6.00065 14.0674" stroke="#FF9B9B" stroke-linejoin="round"/>
<path id="Vector_4" d="M11 10.6667V11.5659C11 12.513 10.5577 13.3907 9.8348 13.878L9.2348 14.2824C8.47473 14.7948 7.52527 14.7948 6.7652 14.2824L6.16521 13.878C5.44232 13.3907 5 12.513 5 11.5659V10.6667" stroke="#FF9B9B" stroke-linecap="round"/>
<path id="Vector_5" d="M12.6673 6.66665L13.4178 6.27138C14.2599 5.71915 14.6809 5.44303 14.667 5.04852C14.6531 4.65401 14.214 4.41401 13.3357 3.93399L10.1842 2.21169C9.11272 1.62611 8.57698 1.33331 8.00065 1.33331C7.42432 1.33331 6.88858 1.62611 5.8171 2.21169L2.66567 3.93399C1.78734 4.41401 1.34818 4.65401 1.33432 5.04852C1.32045 5.44303 1.74148 5.71915 2.58354 6.27138L3.33398 6.66665" stroke="#FF9B9B" stroke-linecap="round"/>
</g>
</svg>
