<svg width="24" height="25" viewBox="0 0 24 25" fill="none" xmlns="http://www.w3.org/2000/svg">
<path d="M9.06165 5.45182L3.23911 10.5468C2.7398 10.9838 3.07458 11.7598 3.76238 11.7598C4.18259 11.7598 4.52324 12.0744 4.52324 12.4626V15.7061C4.52324 18.4965 4.52324 19.8917 5.46176 20.7586C6.40029 21.6255 7.91082 21.6255 10.9319 21.6255H13.0681C16.0892 21.6255 17.5997 21.6255 18.5382 20.7586C19.4768 19.8917 19.4768 18.4965 19.4768 15.7061V12.4626C19.4768 12.0744 19.8174 11.7598 20.2376 11.7598C20.9254 11.7598 21.2602 10.9838 20.7609 10.5468L14.9383 5.45182C13.5469 4.23427 12.8512 3.62549 12 3.62549C11.1488 3.62549 10.4531 4.23427 9.06165 5.45182Z" stroke="#E7E7E7" stroke-width="1.5" stroke-linecap="round" stroke-linejoin="round"/>
<path d="M12 16.6255H12.009" stroke="#E7E7E7" stroke-width="2" stroke-linecap="round" stroke-linejoin="round"/>
</svg>
