<svg width="25" height="24" viewBox="0 0 25 24" fill="none" xmlns="http://www.w3.org/2000/svg">
<g id="image-upload">
<path id="Vector" d="M13.5 3.00231C13.0299 3 12.5307 3 12 3C7.52166 3 5.28249 3 3.89124 4.39124C2.5 5.78249 2.5 8.02166 2.5 12.5C2.5 16.9783 2.5 19.2175 3.89124 20.6088C5.28249 22 7.52166 22 12 22C16.4783 22 18.7175 22 20.1088 20.6088C21.4472 19.2703 21.498 17.147 21.4999 13" stroke="#5D7DD4" stroke-width="1.5" stroke-linecap="round"/>
<path id="Vector_2" d="M2.5 14.1354C3.11902 14.0455 3.74484 14.0011 4.37171 14.0027C7.02365 13.9466 9.61064 14.7729 11.6711 16.3342C13.582 17.7821 14.9247 19.7749 15.5 22" stroke="#5D7DD4" stroke-width="1.5" stroke-linejoin="round"/>
<path id="Vector_3" d="M21.5 16.8962C20.3246 16.3009 19.1088 15.9988 17.8862 16.0001C16.0345 15.9928 14.2015 16.6733 12.5 18" stroke="#5D7DD4" stroke-width="1.5" stroke-linejoin="round"/>
<path id="Vector_4" d="M17.5 4.5C17.9915 3.9943 19.2998 2 20 2M20 2C20.7002 2 22.0085 3.9943 22.5 4.5M20 2V10" stroke="#5D7DD4" stroke-width="1.5" stroke-linecap="round" stroke-linejoin="round"/>
</g>
</svg>
