<svg width="95" height="42" viewBox="0 0 95 42" fill="none" xmlns="http://www.w3.org/2000/svg">
<g style="mix-blend-mode:multiply">
<rect x="10.75" y="10" width="74" height="22" rx="11" fill="#F6F6F6"/>
<circle cx="20.75" cy="21" r="3" fill="#6D6D6D"/>
<path d="M33.467 16.2727V25H32.1502V16.2727H33.467ZM36.5565 21.1136V25H35.2823V18.4545H36.5053V19.5199H36.5863C36.7369 19.1733 36.9727 18.8949 37.2937 18.6847C37.6175 18.4744 38.0252 18.3693 38.5167 18.3693C38.9627 18.3693 39.3533 18.4631 39.6886 18.6506C40.0238 18.8352 40.2837 19.1108 40.4684 19.4773C40.6531 19.8437 40.7454 20.2969 40.7454 20.8366V25H39.4712V20.9901C39.4712 20.5156 39.3477 20.1449 39.1005 19.8778C38.8533 19.608 38.5138 19.473 38.082 19.473C37.7866 19.473 37.5238 19.5369 37.2937 19.6648C37.0664 19.7926 36.886 19.9801 36.7525 20.2273C36.6218 20.4716 36.5565 20.767 36.5565 21.1136ZM44.359 25.1449C43.9442 25.1449 43.5692 25.0682 43.234 24.9148C42.8988 24.7585 42.6332 24.5327 42.4371 24.2372C42.244 23.9418 42.1474 23.5795 42.1474 23.1506C42.1474 22.7812 42.2184 22.4773 42.3604 22.2386C42.5025 22 42.6942 21.8111 42.9357 21.6719C43.1772 21.5327 43.4471 21.4276 43.7454 21.3565C44.0437 21.2855 44.3477 21.2315 44.6573 21.1946C45.0494 21.1491 45.3675 21.1122 45.6119 21.0838C45.8562 21.0526 46.0337 21.0028 46.1445 20.9347C46.2553 20.8665 46.3107 20.7557 46.3107 20.6023V20.5724C46.3107 20.2003 46.2056 19.9119 45.9954 19.7074C45.788 19.5028 45.4783 19.4006 45.0664 19.4006C44.6374 19.4006 44.2994 19.4957 44.0522 19.6861C43.8079 19.8736 43.6388 20.0824 43.5451 20.3125L42.3477 20.0398C42.4897 19.642 42.6971 19.321 42.9698 19.0767C43.2454 18.8295 43.5621 18.6506 43.9201 18.5398C44.2781 18.4261 44.6545 18.3693 45.0494 18.3693C45.3107 18.3693 45.5877 18.4006 45.8803 18.4631C46.1758 18.5227 46.4513 18.6335 46.707 18.7955C46.9656 18.9574 47.1772 19.1889 47.342 19.4901C47.5067 19.7884 47.5891 20.1761 47.5891 20.6534V25H46.3448V24.1051H46.2937C46.2113 24.2699 46.0877 24.4318 45.9229 24.5909C45.7582 24.75 45.5465 24.8821 45.288 24.9872C45.0295 25.0923 44.7198 25.1449 44.359 25.1449ZM44.636 24.1222C44.9883 24.1222 45.2894 24.0526 45.5394 23.9134C45.7923 23.7741 45.984 23.5923 46.1147 23.3679C46.2482 23.1406 46.315 22.8977 46.315 22.6392V21.7955C46.2695 21.8409 46.1815 21.8835 46.0508 21.9233C45.9229 21.9602 45.7766 21.9929 45.6119 22.0213C45.4471 22.0469 45.2866 22.071 45.1303 22.0938C44.9741 22.1136 44.8434 22.1307 44.7383 22.1449C44.4911 22.1761 44.2653 22.2287 44.0607 22.3026C43.859 22.3764 43.6971 22.483 43.5749 22.6222C43.4556 22.7585 43.396 22.9403 43.396 23.1676C43.396 23.483 43.5124 23.7216 43.7454 23.8835C43.9783 24.0426 44.2752 24.1222 44.636 24.1222ZM52.0433 25.1321C51.4098 25.1321 50.8643 24.9886 50.407 24.7017C49.9524 24.4119 49.603 24.0128 49.3587 23.5043C49.1143 22.9957 48.9922 22.4134 48.9922 21.7571C48.9922 21.0923 49.1172 20.5057 49.3672 19.9972C49.6172 19.4858 49.9695 19.0866 50.424 18.7997C50.8786 18.5128 51.4141 18.3693 52.0305 18.3693C52.5277 18.3693 52.9709 18.4616 53.3601 18.6463C53.7493 18.8281 54.0632 19.0838 54.3018 19.4134C54.5433 19.7429 54.6868 20.1278 54.7322 20.5682H53.4922C53.424 20.2614 53.2678 19.9972 53.0234 19.7756C52.782 19.554 52.4581 19.4432 52.0518 19.4432C51.6967 19.4432 51.3857 19.5369 51.1186 19.7244C50.8544 19.9091 50.6484 20.1733 50.5007 20.517C50.353 20.858 50.2791 21.2614 50.2791 21.7273C50.2791 22.2045 50.3516 22.6165 50.4964 22.9631C50.6413 23.3097 50.8459 23.5781 51.1101 23.7685C51.3771 23.9588 51.6911 24.054 52.0518 24.054C52.2933 24.054 52.5121 24.0099 52.7081 23.9219C52.907 23.831 53.0732 23.7017 53.2067 23.5341C53.343 23.3665 53.4382 23.1648 53.4922 22.929H54.7322C54.6868 23.3523 54.549 23.7301 54.3189 24.0625C54.0888 24.3949 53.7805 24.6562 53.3942 24.8466C53.0107 25.0369 52.5604 25.1321 52.0433 25.1321ZM59.1502 18.4545V19.4773H55.5749V18.4545H59.1502ZM56.5337 16.8864H57.8079V23.0781C57.8079 23.3253 57.8448 23.5114 57.9187 23.6364C57.9925 23.7585 58.0877 23.8423 58.2042 23.8878C58.3235 23.9304 58.4528 23.9517 58.592 23.9517C58.6942 23.9517 58.7837 23.9446 58.8604 23.9304C58.9371 23.9162 58.9968 23.9048 59.0394 23.8963L59.2695 24.9489C59.1957 24.9773 59.0906 25.0057 58.9542 25.0341C58.8178 25.0653 58.6474 25.0824 58.4428 25.0852C58.1076 25.0909 57.7951 25.0312 57.5053 24.9062C57.2156 24.7812 56.9812 24.5881 56.8022 24.3267C56.6232 24.0653 56.5337 23.7372 56.5337 23.3423V16.8864ZM60.5597 25V18.4545H61.8338V25H60.5597ZM61.2031 17.4446C60.9815 17.4446 60.7912 17.3707 60.6321 17.223C60.4759 17.0724 60.3977 16.8935 60.3977 16.6861C60.3977 16.4759 60.4759 16.2969 60.6321 16.1491C60.7912 15.9986 60.9815 15.9233 61.2031 15.9233C61.4247 15.9233 61.6136 15.9986 61.7699 16.1491C61.929 16.2969 62.0085 16.4759 62.0085 16.6861C62.0085 16.8935 61.929 17.0724 61.7699 17.223C61.6136 17.3707 61.4247 17.4446 61.2031 17.4446ZM69.1474 18.4545L66.7738 25H65.4102L63.0323 18.4545H64.4002L66.0579 23.4915H66.1261L67.7795 18.4545H69.1474ZM72.9432 25.1321C72.2983 25.1321 71.7429 24.9943 71.277 24.7188C70.8139 24.4403 70.456 24.0497 70.2031 23.5469C69.9531 23.0412 69.8281 22.4489 69.8281 21.7699C69.8281 21.0994 69.9531 20.5085 70.2031 19.9972C70.456 19.4858 70.8082 19.0866 71.2599 18.7997C71.7145 18.5128 72.2457 18.3693 72.8537 18.3693C73.223 18.3693 73.581 18.4304 73.9276 18.5526C74.2741 18.6747 74.5852 18.8665 74.8608 19.1278C75.1364 19.3892 75.3537 19.7287 75.5128 20.1463C75.6719 20.5611 75.7514 21.0653 75.7514 21.6591V22.1108H70.5483V21.1562H74.5028C74.5028 20.821 74.4347 20.5241 74.2983 20.2656C74.1619 20.0043 73.9702 19.7983 73.723 19.6477C73.4787 19.4972 73.1918 19.4219 72.8622 19.4219C72.5043 19.4219 72.1918 19.5099 71.9247 19.6861C71.6605 19.8594 71.456 20.0866 71.3111 20.3679C71.169 20.6463 71.098 20.9489 71.098 21.2756V22.0213C71.098 22.4588 71.1747 22.831 71.3281 23.1378C71.4844 23.4446 71.7017 23.679 71.9801 23.8409C72.2585 24 72.5838 24.0795 72.956 24.0795C73.1974 24.0795 73.4176 24.0455 73.6165 23.9773C73.8153 23.9062 73.9872 23.8011 74.1321 23.6619C74.277 23.5227 74.3878 23.3509 74.4645 23.1463L75.6705 23.3636C75.5739 23.7187 75.4006 24.0298 75.1506 24.2969C74.9034 24.5611 74.5923 24.767 74.2173 24.9148C73.8452 25.0597 73.4205 25.1321 72.9432 25.1321Z" fill="#4F4F4F"/>
</g>
</svg>
