<svg width="24" height="25" viewBox="0 0 24 25" fill="none" xmlns="http://www.w3.org/2000/svg">
<path d="M15 18.5312C14.9264 20.3831 13.3831 21.9556 11.3156 21.905C10.8346 21.8932 10.2401 21.7256 9.05112 21.3902C6.18961 20.583 3.70555 19.2265 3.10956 16.1877C3 15.6292 3 15.0006 3 13.7435V12.0689C3 10.8119 3 10.1833 3.10956 9.62471C3.70555 6.5859 6.18961 5.22941 9.05112 4.42228C10.2401 4.08689 10.8346 3.9192 11.3156 3.90744C13.3831 3.85686 14.9264 5.42932 15 7.28126" stroke="#E7E7E7" stroke-width="1.5" stroke-linecap="round"/>
<path d="M21 12.9062H10M21 12.9062C21 12.206 19.0057 10.8978 18.5 10.4062M21 12.9062C21 13.6065 19.0057 14.9148 18.5 15.4062" stroke="#E7E7E7" stroke-width="1.5" stroke-linecap="round" stroke-linejoin="round"/>
</svg>
