<svg width="24" height="25" viewBox="0 0 24 25" fill="none" xmlns="http://www.w3.org/2000/svg">
<path d="M14.9263 3.53652L8.27352 6.73001C7.76151 6.97578 7.21443 7.03736 6.65675 6.91242C6.29177 6.83066 6.10926 6.78978 5.9623 6.773C4.13743 6.56461 3 8.00891 3 9.66976V10.5812C3 12.2421 4.13743 13.6864 5.9623 13.478C6.10926 13.4612 6.29178 13.4203 6.65675 13.3386C7.21443 13.2136 7.76151 13.2752 8.27352 13.521L14.9263 16.7145C16.4534 17.4476 17.217 17.8141 18.0684 17.5284C18.9197 17.2427 19.2119 16.6296 19.7964 15.4035C21.4012 12.0367 21.4012 8.21434 19.7964 4.84745C19.2119 3.62135 18.9197 3.0083 18.0684 2.72259C17.217 2.43689 16.4534 2.80343 14.9263 3.53652Z" stroke="#E7E7E7" stroke-width="1.5" stroke-linecap="round" stroke-linejoin="round"/>
<path d="M11.4581 21.3964L9.96674 22.6255C6.60515 19.9594 7.01583 18.688 7.01583 13.6255H8.14966C8.60978 16.4864 9.69512 17.8415 11.1927 18.8225C12.1152 19.4267 12.3054 20.698 11.4581 21.3964Z" stroke="#E7E7E7" stroke-width="1.5" stroke-linecap="round" stroke-linejoin="round"/>
<path d="M7.5 13.1255V7.12549" stroke="#E7E7E7" stroke-width="1.5" stroke-linecap="round" stroke-linejoin="round"/>
</svg>
