<svg width="24" height="25" viewBox="0 0 24 25" fill="none" xmlns="http://www.w3.org/2000/svg">
<g id="school">
<path id="Vector" d="M7 22.6255V13.0236C7 11.9554 7 11.4213 7.24458 10.9733C7.48915 10.5254 7.93842 10.2365 8.83697 9.6589L10.9185 8.32078C11.4437 7.98315 11.7063 7.81433 12 7.81433C12.2937 7.81433 12.5563 7.98315 13.0815 8.32078L15.163 9.6589C16.0616 10.2365 16.5108 10.5254 16.7554 10.9733C17 11.4213 17 11.9554 17 13.0236V22.6255" stroke="#E7E7E7" stroke-width="1.5" stroke-linecap="round" stroke-linejoin="round"/>
<path id="Vector_2" d="M12 13.6255H12.009" stroke="#E7E7E7" stroke-width="2" stroke-linecap="round" stroke-linejoin="round"/>
<path id="Vector_3" d="M21 22.6255V16.7878C21 14.4962 19.7408 14.3107 17 13.6255" stroke="#E7E7E7" stroke-width="1.5" stroke-linecap="round" stroke-linejoin="round"/>
<path id="Vector_4" d="M3 22.6255V16.7878C3 14.4962 4.25916 14.3107 7 13.6255" stroke="#E7E7E7" stroke-width="1.5" stroke-linecap="round" stroke-linejoin="round"/>
<path id="Vector_5" d="M2 22.6255H22" stroke="#E7E7E7" stroke-width="1.5" stroke-linecap="round" stroke-linejoin="round"/>
<path id="Vector_6" d="M12 22.6255V18.6255" stroke="#E7E7E7" stroke-width="1.5" stroke-linecap="round"/>
<path id="Vector_7" d="M12 7.62549V5.6077M12 5.6077V3.59584C12 3.12164 12 2.88454 12.1464 2.73722C12.6061 2.27488 14.5 3.36852 15.2203 3.81202C15.8285 4.18654 16 4.93463 16 5.6077H12Z" stroke="#E7E7E7" stroke-width="1.5" stroke-linecap="round" stroke-linejoin="round"/>
</g>
</svg>
