<svg width="24" height="25" viewBox="0 0 24 25" fill="none" xmlns="http://www.w3.org/2000/svg">
<path d="M15 3.12549V4.62549C15 6.0397 15 6.74681 15.4393 7.18615C15.8787 7.62549 16.5858 7.62549 18 7.62549H19.5" stroke="#E7E7E7" stroke-width="1.5" stroke-linecap="round" stroke-linejoin="round"/>
<path d="M4 16.6255V8.62549C4 5.79706 4 4.38285 4.87868 3.50417C5.75736 2.62549 7.17157 2.62549 10 2.62549H14.1716C14.5803 2.62549 14.7847 2.62549 14.9685 2.70161C15.1522 2.77773 15.2968 2.92225 15.5858 3.21128L19.4142 7.0397C19.7032 7.32873 19.8478 7.47325 19.9239 7.65702C20 7.84079 20 8.04517 20 8.45392V16.6255C20 19.4539 20 20.8681 19.1213 21.7468C18.2426 22.6255 16.8284 22.6255 14 22.6255H10C7.17157 22.6255 5.75736 22.6255 4.87868 21.7468C4 20.8681 4 19.4539 4 16.6255Z" stroke="#E7E7E7" stroke-width="1.5" stroke-linecap="round" stroke-linejoin="round"/>
<path d="M12 11.6255V14.6255M12 14.6255V17.6255M12 14.6255H7.5M12 14.6255H16.5M9.5 17.6255H14.5C15.4428 17.6255 15.9142 17.6255 16.2071 17.3326C16.5 17.0397 16.5 16.5683 16.5 15.6255V13.6255C16.5 12.6827 16.5 12.2113 16.2071 11.9184C15.9142 11.6255 15.4428 11.6255 14.5 11.6255H9.5C8.55719 11.6255 8.08579 11.6255 7.79289 11.9184C7.5 12.2113 7.5 12.6827 7.5 13.6255V15.6255C7.5 16.5683 7.5 17.0397 7.79289 17.3326C8.08579 17.6255 8.55719 17.6255 9.5 17.6255Z" stroke="#E7E7E7" stroke-width="1.5" stroke-linecap="round" stroke-linejoin="round"/>
</svg>
