<svg width="24" height="25" viewBox="0 0 24 25" fill="none" xmlns="http://www.w3.org/2000/svg">
<path d="M2.5 12.9062C2.5 8.42791 2.5 6.18874 3.89124 4.79749C5.28249 3.40625 7.52166 3.40625 12 3.40625C16.4783 3.40625 18.7175 3.40625 20.1088 4.79749C21.5 6.18874 21.5 8.42791 21.5 12.9062C21.5 17.3846 21.5 19.6238 20.1088 21.0151C18.7175 22.4063 16.4783 22.4062 12 22.4062C7.52166 22.4062 5.28249 22.4063 3.89124 21.0151C2.5 19.6238 2.5 17.3846 2.5 12.9062Z" stroke="#E7E7E7" stroke-width="1.5" stroke-linejoin="round"/>
<path d="M10 16.4062C10 17.2347 9.32843 17.9062 8.5 17.9062C7.67157 17.9062 7 17.2347 7 16.4062C7 15.5778 7.67157 14.9062 8.5 14.9062C9.32843 14.9062 10 15.5778 10 16.4062Z" stroke="#E7E7E7" stroke-width="1.5"/>
<path d="M17 9.40625C17 8.57782 16.3284 7.90625 15.5 7.90625C14.6716 7.90625 14 8.57782 14 9.40625C14 10.2347 14.6716 10.9062 15.5 10.9062C16.3284 10.9062 17 10.2347 17 9.40625Z" stroke="#E7E7E7" stroke-width="1.5"/>
<path d="M8.5 14.9062V7.90625" stroke="#DEFADE" stroke-width="1.5" stroke-linecap="round"/>
<path d="M15.5 10.9062V17.9062" stroke="#DEFADE" stroke-width="1.5" stroke-linecap="round"/>
</svg>
