<svg width="24" height="25" viewBox="0 0 24 25" fill="none" xmlns="http://www.w3.org/2000/svg">
<path d="M20.774 18.6255C21.5233 18.6255 22.1193 18.154 22.6545 17.4946C23.7499 16.1449 21.9513 15.0663 21.2654 14.5381C20.568 14.0011 19.7894 13.6969 19 13.6255M18 11.6255C19.3807 11.6255 20.5 10.5062 20.5 9.12549C20.5 7.74478 19.3807 6.62549 18 6.62549" stroke="#E7E7E7" stroke-width="1.5" stroke-linecap="round"/>
<path d="M3.22596 18.6255C2.47666 18.6255 1.88067 18.154 1.34555 17.4946C0.250087 16.1449 2.04867 15.0663 2.73465 14.5381C3.43197 14.0011 4.21058 13.6969 5 13.6255M5.5 11.6255C4.11929 11.6255 3 10.5062 3 9.12549C3 7.74478 4.11929 6.62549 5.5 6.62549" stroke="#E7E7E7" stroke-width="1.5" stroke-linecap="round"/>
<path d="M8.0838 15.7367C7.06203 16.3685 4.38299 17.6586 6.0147 19.2729C6.81178 20.0615 7.69952 20.6255 8.81563 20.6255H15.1844C16.3005 20.6255 17.1882 20.0615 17.9853 19.2729C19.617 17.6586 16.938 16.3685 15.9162 15.7367C13.5201 14.2551 10.4799 14.2551 8.0838 15.7367Z" stroke="#E7E7E7" stroke-width="1.5" stroke-linecap="round" stroke-linejoin="round"/>
<path d="M15.5 8.12549C15.5 10.0585 13.933 11.6255 12 11.6255C10.067 11.6255 8.5 10.0585 8.5 8.12549C8.5 6.19249 10.067 4.62549 12 4.62549C13.933 4.62549 15.5 6.19249 15.5 8.12549Z" stroke="#E7E7E7" stroke-width="1.5"/>
</svg>
