<svg width="24" height="25" viewBox="0 0 24 25" fill="none" xmlns="http://www.w3.org/2000/svg">
<path d="M19 10.6255C16.995 9.99364 14.5882 9.62549 12 9.62549C9.41179 9.62549 7.00499 9.99364 5 10.6255V14.1255C7.00499 13.4937 9.41179 13.1255 12 13.1255C14.5882 13.1255 16.995 13.4937 19 14.1255V10.6255Z" stroke="#E7E7E7" stroke-width="1.5" stroke-linejoin="round"/>
<path d="M19 13.6255V15.6487C19 17.7797 17.9679 19.7545 16.2812 20.8509L14.8812 21.7609C13.1078 22.9137 10.8922 22.9137 9.11882 21.7609L7.71883 20.8509C6.03208 19.7545 5 17.7797 5 15.6487V13.6255" stroke="#E7E7E7" stroke-width="1.5" stroke-linecap="round"/>
<path d="M19 10.6255L20.1257 10.0326C21.3888 9.20424 22.0203 8.79006 21.9995 8.1983C21.9787 7.60654 21.32 7.24653 20.0025 6.5265L15.2753 3.94305C13.6681 3.06468 12.8645 2.62549 12 2.62549C11.1355 2.62549 10.3319 3.06468 8.72468 3.94305L3.99753 6.5265C2.68004 7.24653 2.02129 7.60654 2.0005 8.1983C1.9797 8.79006 2.61125 9.20424 3.87434 10.0326L5 10.6255" stroke="#E7E7E7" stroke-width="1.5" stroke-linecap="round"/>
</svg>
