<svg width="24" height="25" viewBox="0 0 24 25" fill="none" xmlns="http://www.w3.org/2000/svg">
<g id="wallet-02">
<path id="Vector" d="M16 14.6255C16 15.4539 16.6716 16.1255 17.5 16.1255C18.3284 16.1255 19 15.4539 19 14.6255C19 13.7971 18.3284 13.1255 17.5 13.1255C16.6716 13.1255 16 13.7971 16 14.6255Z" stroke="#E7E7E7" stroke-width="1.5"/>
<path id="Vector_2" d="M18.9 8.62549C18.9656 8.30238 19 7.96796 19 7.62549C19 4.86407 16.7614 2.62549 14 2.62549C11.2386 2.62549 9 4.86407 9 7.62549C9 7.96796 9.03443 8.30238 9.10002 8.62549" stroke="#E7E7E7" stroke-width="1.5"/>
<path id="Vector_3" d="M7 8.61873H16C18.8284 8.61873 20.2426 8.61873 21.1213 9.49783C22 10.3769 22 11.7918 22 14.6216V16.6226C22 19.4524 22 20.8673 21.1213 21.7464C20.2426 22.6255 18.8284 22.6255 16 22.6255H10C6.22876 22.6255 4.34315 22.6255 3.17157 21.4534C2 20.2812 2 18.3947 2 14.6216V12.6207C2 8.8476 2 6.96107 3.17157 5.78893C4.11466 4.84539 5.52043 4.66138 8 4.62549H10" stroke="#E7E7E7" stroke-width="1.5" stroke-linecap="round"/>
</g>
</svg>
