<svg width="24" height="25" viewBox="0 0 24 25" fill="none" xmlns="http://www.w3.org/2000/svg">
<g id="customer-support">
<path id="Vector" d="M17 11.43C17 11.0843 17 10.9115 17.052 10.7575C17.2032 10.3099 17.6018 10.1362 18.0011 9.95437C18.45 9.74991 18.6744 9.64768 18.8968 9.62969C19.1493 9.60927 19.4022 9.66367 19.618 9.78478C19.9041 9.94533 20.1036 10.2504 20.3079 10.4985C21.2513 11.6443 21.7229 12.2173 21.8955 12.8491C22.0348 13.3589 22.0348 13.8921 21.8955 14.4019C21.6438 15.3234 20.8485 16.0959 20.2598 16.8109C19.9587 17.1766 19.8081 17.3595 19.618 17.4662C19.4022 17.5873 19.1493 17.6417 18.8968 17.6213C18.6744 17.6033 18.45 17.5011 18.0011 17.2966C17.6018 17.1147 17.2032 16.9411 17.052 16.4935C17 16.3395 17 16.1667 17 15.821V11.43Z" stroke="#E7E7E7" stroke-width="1.5"/>
<path id="Vector_2" d="M7 11.4301C7 10.9949 6.98778 10.6037 6.63591 10.2977C6.50793 10.1864 6.33825 10.1091 5.99891 9.95454C5.55001 9.75007 5.32556 9.64784 5.10316 9.62985C4.43591 9.57589 4.07692 10.0313 3.69213 10.4987C2.74875 11.6445 2.27706 12.2174 2.10446 12.8492C1.96518 13.3591 1.96518 13.8923 2.10446 14.4021C2.3562 15.3236 3.15152 16.096 3.74021 16.8111C4.11129 17.2618 4.46577 17.673 5.10316 17.6215C5.32556 17.6035 5.55001 17.5012 5.99891 17.2968C6.33825 17.1422 6.50793 17.0649 6.63591 16.9536C6.98778 16.6476 7 16.2565 7 15.8212V11.4301Z" stroke="#E7E7E7" stroke-width="1.5"/>
<path id="Vector_3" d="M5 9.62549C5 6.31178 8.13401 3.62549 12 3.62549C15.866 3.62549 19 6.31178 19 9.62549" stroke="#E7E7E7" stroke-width="1.5" stroke-linecap="square" stroke-linejoin="round"/>
<path id="Vector_4" d="M19 17.6255V18.4255C19 20.1928 17.2091 21.6255 15 21.6255H13" stroke="#E7E7E7" stroke-width="1.5" stroke-linecap="round" stroke-linejoin="round"/>
</g>
</svg>
