<svg width="24" height="25" viewBox="0 0 24 25" fill="none" xmlns="http://www.w3.org/2000/svg">
<path d="M5.08069 15.9219C3.86241 16.659 0.668176 18.1641 2.61368 20.0475C3.56404 20.9675 4.62251 21.6255 5.95325 21.6255H13.5468C14.8775 21.6255 15.936 20.9675 16.8863 20.0475C18.8318 18.1641 15.6376 16.659 14.4193 15.9219C11.5625 14.1934 7.93752 14.1934 5.08069 15.9219Z" stroke="#E7E7E7" stroke-width="1.5" stroke-linecap="round" stroke-linejoin="round"/>
<path d="M13.5 7.62549C13.5 9.83463 11.7091 11.6255 9.5 11.6255C7.29086 11.6255 5.5 9.83463 5.5 7.62549C5.5 5.41635 7.29086 3.62549 9.5 3.62549C11.7091 3.62549 13.5 5.41635 13.5 7.62549Z" stroke="#E7E7E7" stroke-width="1.5"/>
<path d="M17 5.62549H22" stroke="#E7E7E7" stroke-width="1.5" stroke-linecap="round" stroke-linejoin="round"/>
<path d="M17 8.62549H22" stroke="#E7E7E7" stroke-width="1.5" stroke-linecap="round" stroke-linejoin="round"/>
<path d="M20 11.6255H22" stroke="#E7E7E7" stroke-width="1.5" stroke-linecap="round" stroke-linejoin="round"/>
</svg>
