<svg width="100" height="100" viewBox="0 0 100 100" fill="none" xmlns="http://www.w3.org/2000/svg">
<g id="user-circle-02">
<path id="Vector" d="M91.6666 49.9997C91.6666 73.0113 73.0116 91.6663 49.9999 91.6663C26.988 91.6663 8.33325 73.0113 8.33325 49.9997C8.33325 26.9878 26.988 8.33301 49.9999 8.33301C73.0116 8.33301 91.6666 26.9878 91.6666 49.9997Z" stroke="#4963C7" stroke-width="1.5"/>
<path id="Vector_2" d="M61.4584 39.5833C61.4584 45.9117 56.3284 51.0417 50.0001 51.0417C43.6717 51.0417 38.5417 45.9117 38.5417 39.5833C38.5417 33.2551 43.6717 28.125 50.0001 28.125C56.3284 28.125 61.4584 33.2551 61.4584 39.5833Z" stroke="#4963C7" stroke-width="1.5"/>
<path id="Vector_3" d="M22.9165 79.1673L25.2515 75.0811C28.9607 68.5902 35.8637 64.584 43.3401 64.584H56.6597C64.1359 64.584 71.0388 68.5902 74.748 75.0811L77.083 79.1673" stroke="#4963C7" stroke-width="1.5" stroke-linecap="round" stroke-linejoin="round"/>
</g>
</svg>
