<svg width="16" height="16" viewBox="0 0 16 16" fill="none" xmlns="http://www.w3.org/2000/svg">
<path d="M14.3628 7.3635C14.5655 7.6477 14.6668 7.78983 14.6668 8.00016C14.6668 8.2105 14.5655 8.35263 14.3628 8.63683C13.4521 9.9139 11.1263 12.6668 8.00016 12.6668C4.87402 12.6668 2.54823 9.9139 1.63752 8.63683C1.43484 8.35263 1.3335 8.2105 1.3335 8.00016C1.3335 7.78983 1.43484 7.6477 1.63752 7.3635C2.54823 6.08646 4.87402 3.3335 8.00016 3.3335C11.1263 3.3335 13.4521 6.08646 14.3628 7.3635Z" stroke="#333333" stroke-width="1.5"/>
<path d="M10 8C10 6.8954 9.1046 6 8 6C6.8954 6 6 6.8954 6 8C6 9.1046 6.8954 10 8 10C9.1046 10 10 9.1046 10 8Z" stroke="#333333" stroke-width="1.5"/>
</svg>
